<?xml version="1.0" encoding="utf-8"?>
<!-- Generator: Adobe Illustrator 18.1.1, SVG Export Plug-In . SVG Version: 6.00 Build 0)  -->
<svg version="1.1" id="Layer_1" xmlns="http://www.w3.org/2000/svg" xmlns:xlink="http://www.w3.org/1999/xlink" x="0px" y="0px"
	 viewBox="0 0 250 59.9" enable-background="new 0 0 250 59.9" xml:space="preserve">
<path fill="#171B23" d="M9.7,55.9C6,54.8,3.1,53.3,1,51.4l3.3-7.4c2.1,1.7,4.7,3,7.7,4.1c3,1,6.1,1.6,9.2,1.6c3.8,0,6.6-0.6,8.5-1.8
	c1.9-1.2,2.8-2.8,2.8-4.8c0-1.5-0.5-2.7-1.6-3.6c-1-0.9-2.4-1.7-4-2.2c-1.6-0.5-3.8-1.1-6.6-1.8c-3.9-0.9-7-1.8-9.5-2.8
	c-2.4-0.9-4.5-2.4-6.2-4.3c-1.7-2-2.6-4.6-2.6-8c0-2.8,0.8-5.4,2.3-7.7c1.5-2.3,3.8-4.1,6.9-5.5c3.1-1.4,6.9-2,11.4-2
	c3.1,0,6.2,0.4,9.2,1.2c3,0.8,5.6,1.9,7.8,3.4l-3,7.4c-2.2-1.3-4.6-2.3-7-3c-2.4-0.7-4.8-1-7.1-1c-3.7,0-6.5,0.6-8.4,1.9
	c-1.8,1.3-2.7,2.9-2.7,5c0,1.5,0.5,2.7,1.6,3.6c1,0.9,2.4,1.7,4,2.2c1.6,0.5,3.8,1.1,6.6,1.8c3.8,0.9,6.9,1.8,9.3,2.7
	c2.4,0.9,4.5,2.4,6.2,4.3c1.7,1.9,2.6,4.6,2.6,7.9c0,2.8-0.8,5.4-2.3,7.7c-1.5,2.3-3.9,4.1-7,5.5c-3.1,1.4-6.9,2-11.4,2
	C17.2,57.6,13.4,57,9.7,55.9z"/>
<path fill="#171B23" d="M84.3,21.7c3,2.9,4.5,7.1,4.5,12.8v22.3h-9.1V35.7c0-3.4-0.8-6-2.4-7.7c-1.6-1.7-3.9-2.6-6.9-2.6
	c-3.4,0-6,1-8,3c-1.9,2-2.9,4.9-2.9,8.7v19.7h-9.1V2.6h9.1v19.7c1.5-1.6,3.4-2.8,5.6-3.7c2.2-0.9,4.7-1.3,7.4-1.3
	C77.4,17.4,81.3,18.8,84.3,21.7z"/>
<path fill="#171B23" d="M128.4,21.5c3,2.8,4.6,6.9,4.6,12.4v22.9h-8.6v-4.7c-1.1,1.7-2.7,3-4.8,3.9c-2.1,0.9-4.6,1.4-7.5,1.4
	c-2.9,0-5.5-0.5-7.7-1.5c-2.2-1-3.9-2.4-5.1-4.2c-1.2-1.8-1.8-3.8-1.8-6c0-3.5,1.3-6.3,3.9-8.4c2.6-2.1,6.7-3.2,12.3-3.2h10.1v-0.6
	c0-2.7-0.8-4.8-2.4-6.3c-1.6-1.5-4.1-2.2-7.3-2.2c-2.2,0-4.3,0.3-6.5,1c-2.1,0.7-3.9,1.6-5.4,2.8l-3.6-6.6c2-1.6,4.5-2.7,7.4-3.6
	c2.9-0.8,5.9-1.2,9.1-1.2C121,17.4,125.4,18.8,128.4,21.5z M120.1,49.1c1.8-1,3-2.5,3.8-4.5v-4.5h-9.4c-5.3,0-7.9,1.7-7.9,5.2
	c0,1.7,0.7,3,2,3.9c1.3,1,3.1,1.5,5.5,1.5C116.3,50.7,118.3,50.2,120.1,49.1z"/>
<path fill="#171B23" d="M145,17.8v38h8v-38H145z"/>
<path fill="#171B23" d="M199.7,21.7c3,2.9,4.5,7.1,4.5,12.8v22.3h-9.1V35.7c0-3.4-0.8-6-2.4-7.7c-1.6-1.7-3.9-2.6-6.9-2.6
	c-3.4,0-6,1-8,3c-1.9,2-2.9,4.9-2.9,8.7v19.7h-9.1v-39h8.7v5c1.5-1.8,3.4-3.2,5.7-4.1c2.3-0.9,4.9-1.4,7.7-1.4
	C192.8,17.4,196.8,18.8,199.7,21.7z"/>
<path fill="#171B23" d="M243.9,21.5c3,2.8,4.6,6.9,4.6,12.4v22.9h-8.6v-4.7c-1.1,1.7-2.7,3-4.8,3.9c-2.1,0.9-4.6,1.4-7.5,1.4
	c-2.9,0-5.5-0.5-7.7-1.5c-2.2-1-3.9-2.4-5.1-4.2c-1.2-1.8-1.8-3.8-1.8-6c0-3.5,1.3-6.3,3.9-8.4c2.6-2.1,6.7-3.2,12.3-3.2h10.1v-0.6
	c0-2.7-0.8-4.8-2.4-6.3c-1.6-1.5-4.1-2.2-7.3-2.2c-2.2,0-4.3,0.3-6.5,1c-2.1,0.7-3.9,1.6-5.4,2.8l-3.6-6.6c2-1.6,4.5-2.7,7.4-3.6
	c2.9-0.8,5.9-1.2,9.1-1.2C236.5,17.4,240.8,18.8,243.9,21.5z M235.6,49.1c1.8-1,3-2.5,3.8-4.5v-4.5h-9.4c-5.3,0-7.9,1.7-7.9,5.2
	c0,1.7,0.7,3,2,3.9c1.3,1,3.1,1.5,5.5,1.5C231.8,50.7,233.8,50.2,235.6,49.1z"/>
<circle fill="#550BEB" cx="149.2" cy="7.9" r="5.5"/>
</svg>
